# xmcd CD database file
# Copyright (C) 1993-1998 Ti Kan
#
# Track frame offsets:
#	150
#	10167
#	26685
#	36377
#	47792
#	69175
#	79375
#	93565
#	103527
#	118072
#	128102
#	150872
#	164915
#	180932
#
# Disc length: 2526 seconds
#
# Revision: 1
# Processed by: cddbd v1.4b41PL1 Copyright (c) Steve Scherf et al.
# Submitted via: CDValet v3.01 - Copyright (c) 1997 Greg Leichner
#
DISCID=b009dc0e
DTITLE=Katie Webster - Live+Well
DYEAR=1900
DGENRE=
TTITLE0=Shake, Rattle And Roll
TTITLE1=Katies's Worried Blues
TTITLE2=Oh Wee, Sweet Daddy
TTITLE3=Night Time Is The Right Time
TTITLE4=Loving Arms
TTITLE5=Ev'rybody Likes To Rock 'N Roll
TTITLE6=(I Can't Get No) Satisfaction
TTITLE7=You're So Fine
TTITLE8=That's The Katie Lee
TTITLE9=Boogie Texas Queen
TTITLE10=You'll Lose A Good Thing
TTITLE11=Mother-In-Law
TTITLE12=Goin' Home Tomorrow
TTITLE13=Reach Out And Touch
EXTD=
EXTT0=
EXTT1=
EXTT2=
EXTT3=
EXTT4=
EXTT5=
EXTT6=
EXTT7=
EXTT8=
EXTT9=
EXTT10=
EXTT11=
EXTT12=
EXTT13=
PLAYORDER=
